PathFileType	4	(x/y/z)	S10_M20_T35
DataRate	CameraRate	NumFrames	NumMarkers	Units	OrigDataRate	OrigDataStartFrame	OrigNumFrames
240	240	9	51	mm	240	71	563
Frame#	Time	Sternum			R.Acromium			L.Acromium			Top.Head			R.ASIS			L.ASIS			R.PSIS			L.PSIS			R.Great.Tro			L.Great.Tro			R.Iliac.Crest			L.Iliac.Crest			V.Sacral			R.Thigh.Upper.Post			R.Thigh.Lower.Ant			R.Thigh.Lower.Post			R.Thigh.Upper.Ant			R.Knee.Lat			R.Knee.Med			R.Shank.Upper.Post			R.Shank.Lower.Ant			R.Shank.Lower.Post			R.Shank.Upper.Ant			R.Ankle.Lat			R.Ankle.Med			R.Heel.Upper			R.Heel.Med			R.Heel.Lat			R.Toe.Lat			R.Toe.Med			R.Toe.Tip			L.Thigh.Upper.Post			L.Thigh.Lower.Ant			L.Thigh.Lower.Post			L.Thigh.Upper.Ant			L.Knee.Lat			L.Knee.Med			L.Shank.Upper.Post			L.Shank.Lower.Ant			L.Shank.Lower.Post			L.Shank.Upper.Ant			L.Ankle.Lat			L.Ankle.Med			L.Heel.Upper			L.Heel.Med			L.Heel.Lat			L.Toe.Lat			L.Toe.Med			L.Toe.Tip			Cervical.Spine			Back			
		X1	Y1	Z1	X2	Y2	Z2	X3	Y3	Z3	X4	Y4	Z4	X5	Y5	Z5	X6	Y6	Z6	X7	Y7	Z7	X8	Y8	Z8	X9	Y9	Z9	X10	Y10	Z10	X11	Y11	Z11	X12	Y12	Z12	X13	Y13	Z13	X14	Y14	Z14	X15	Y15	Z15	X16	Y16	Z16	X17	Y17	Z17	X18	Y18	Z18	X19	Y19	Z19	X20	Y20	Z20	X21	Y21	Z21	X22	Y22	Z22	X23	Y23	Z23	X24	Y24	Z24	X25	Y25	Z25	X26	Y26	Z26	X27	Y27	Z27	X28	Y28	Z28	X29	Y29	Z29	X30	Y30	Z30	X31	Y31	Z31	X32	Y32	Z32	X33	Y33	Z33	X34	Y34	Z34	X35	Y35	Z35	X36	Y36	Z36	X37	Y37	Z37	X38	Y38	Z38	X39	Y39	Z39	X40	Y40	Z40	X41	Y41	Z41	X42	Y42	Z42	X43	Y43	Z43	X44	Y44	Z44	X45	Y45	Z45	X46	Y46	Z46	X47	Y47	Z47	X48	Y48	Z48	X49	Y49	Z49	X50	Y50	Z50	X51	Y51	Z51	

71	0.29167	-372.37	1269.1	330.95	-496.16	1430.6	472.18	-495.26	1433.8	164.26	-563.44	1732.9	327.6	-432.79	989.5	435.46	-418.46	1023.5	206.34	-626.98	1019.3	334.75	-617.32	1033.5	255.55	-512.13	901.09	494.01	-470.78	966.58	140.3	-532.09	1068	477.57	-484.36	1098.9	177.38	-645.64	992.83	293.73	-466.57	699.41	505.51	-395.12	629.25	480.44	-458.39	610.11	501.66	-399.94	720.99	481.65	-449.45	485.5	473.06	-433.83	479.43	341.49	-647.79	391.49	469.88	-658.52	300.6	461.13	-706.16	344.7	465.02	-594.42	344.17	466.36	-782.49	260.93	449.32	-766.27	256.76	367.94	-832.82	296.32	402.12	-854.65	284.71	371.74	-858.16	283.4	432.87	-826.5	113.53	463.4	-801.85	102.39	356.81	-771.05	48.708	395.36	-464.47	679.46	153.72	-380.45	615.52	189.15	-450.6	588.47	181.76	-389.4	701.78	162.79	-405.4	510.74	205.44	-405.73	519.58	333.14	-478.22	300.4	212.49	-417.03	210.39	234.83	-479.18	223.71	225.34	-415.21	286.14	220.84	-459.03	104.51	243.58	-447.73	118.06	329.89	-531.54	76.211	292.32	-518.57	44.246	326	-524.16	45.535	261.38	-347.36	40.093	222.5	-319.92	46.188	331.38	-264.51	57.898	281.86	-577.57	1488.4	326.24	-659.03	1278.5	317.45
72	0.29583	-368	1270.4	331.32	-492.72	1431.6	472.04	-490.13	1434.9	164.17	-558.29	1734.1	327.39	-427.94	990.93	435.03	-414.17	1024.4	205.89	-622.34	1020.3	334.86	-612.84	1034.4	255.61	-506.77	902.58	494.09	-466.78	967.19	140.08	-527.47	1069.3	477.39	-480.1	1099.8	177.12	-641.07	993.8	293.95	-458.94	701.32	505.92	-386.68	632.05	480.67	-449.56	612.11	502.27	-392.73	723.67	481.5	-439.17	487.48	473.57	-423.43	481.67	341.95	-636.78	391.86	470.03	-646.6	300.85	461.3	-694.68	344.54	465.22	-582.94	345.04	466.61	-770.39	259.99	449.28	-754.05	255.74	368.25	-822.4	293.72	401.93	-843.85	281.25	371.65	-847.2	280.25	432.86	-809.83	111.81	464.31	-785.04	100.87	357.66	-752.44	48.478	396.44	-462.33	680.05	153.64	-378.72	615.44	188.79	-449.12	588.92	181.59	-387.08	701.77	162.52	-404.34	510.8	205.13	-404.8	519.5	332.83	-477.71	300.6	212.33	-416.74	210.47	234.69	-478.88	223.93	225.27	-414.73	286.2	220.65	-458.92	104.53	243.59	-447.59	118.2	329.83	-531.43	76.257	292.31	-518.55	44.336	326.01	-524.12	45.634	261.38	-347.34	40.04	222.45	-319.86	46.13	331.35	-264.44	57.734	281.84	-573.27	1489.3	325.66	-654.51	1279.4	316.55
73	0.3	-363.65	1271.6	331.65	-489.28	1432.6	471.9	-485.03	1435.9	164.08	-553.15	1735.4	327.19	-423.1	992.35	434.58	-409.89	1025.2	205.41	-617.72	1021.3	335	-608.37	1035.3	255.67	-501.39	904.07	494.19	-462.79	967.77	139.84	-522.82	1070.7	477.21	-475.86	1100.7	176.86	-636.52	994.72	294.18	-451.3	703.26	506.32	-378.29	634.87	480.85	-440.76	614.16	502.89	-385.57	726.35	481.29	-428.98	489.51	474.07	-413.12	483.97	342.43	-625.81	392.13	470.19	-634.66	301	461.46	-683.2	344.24	465.42	-571.48	345.87	466.87	-758.22	258.87	449.23	-741.75	254.57	368.56	-811.89	290.86	401.71	-832.93	277.52	371.53	-836.13	276.83	432.82	-792.98	110.02	465.22	-768	99.294	358.53	-733.6	48.264	397.54	-460.21	680.64	153.58	-377.02	615.35	188.48	-447.65	589.36	181.46	-384.78	701.75	162.26	-403.3	510.86	204.86	-403.87	519.41	332.56	-477.19	300.79	212.2	-416.44	210.55	234.58	-478.57	224.15	225.22	-414.25	286.26	220.5	-458.8	104.56	243.61	-447.46	118.34	329.78	-531.3	76.309	292.32	-518.53	44.424	326.02	-524.09	45.743	261.39	-347.31	39.991	222.41	-319.79	46.056	331.31	-264.36	57.554	281.82	-568.99	1490.3	325.09	-650.01	1280.3	315.69
74	0.30417	-359.32	1272.8	331.93	-485.84	1433.6	471.76	-479.98	1437	164	-548.02	1736.6	326.99	-418.25	993.74	434.1	-405.64	1026.1	204.91	-613.1	1022.3	335.14	-603.91	1036.1	255.75	-495.98	905.56	494.29	-458.81	968.3	139.59	-518.12	1072	477.01	-471.64	1101.5	176.57	-631.96	995.61	294.41	-443.65	705.21	506.7	-369.96	637.71	480.99	-431.99	616.24	503.49	-378.45	729.04	481.03	-418.88	491.56	474.56	-402.94	486.32	342.92	-614.9	392.3	470.36	-622.7	301.06	461.63	-671.71	343.81	465.63	-560.04	346.64	467.13	-745.97	257.57	449.17	-729.37	253.24	368.86	-801.27	287.74	401.48	-821.86	273.51	371.39	-824.95	273.15	432.76	-775.97	108.18	466.12	-750.76	97.668	359.4	-714.57	48.075	398.66	-458.1	681.21	153.55	-375.33	615.25	188.19	-446.19	589.8	181.36	-382.5	701.73	162.02	-402.27	510.93	204.6	-402.92	519.31	332.31	-476.69	300.99	212.1	-416.14	210.63	234.49	-478.27	224.37	225.19	-413.78	286.33	220.38	-458.67	104.59	243.65	-447.33	118.47	329.76	-531.17	76.368	292.34	-518.51	44.511	326.03	-524.05	45.86	261.41	-347.28	39.947	222.38	-319.71	45.966	331.29	-264.28	57.356	281.81	-564.71	1491.2	324.53	-645.52	1281.1	314.85
75	0.30833	-355	1274	332.16	-482.39	1434.6	471.61	-474.97	1438.1	163.92	-542.9	1737.8	326.81	-413.42	995.11	433.62	-401.4	1026.9	204.4	-608.5	1023.3	335.29	-599.47	1036.9	255.83	-490.56	907.05	494.41	-454.83	968.8	139.34	-513.39	1073.3	476.82	-467.43	1102.3	176.27	-627.41	996.44	294.66	-436	707.19	507.07	-361.67	640.57	481.08	-423.25	618.37	504.09	-371.39	731.73	480.73	-408.88	493.65	475.04	-392.89	488.72	343.41	-604.03	392.37	470.55	-610.72	301.02	461.79	-660.22	343.24	465.85	-548.61	347.36	467.4	-733.65	256.09	449.1	-716.89	251.76	369.14	-790.54	284.35	401.23	-810.63	269.25	371.24	-813.64	269.22	432.68	-758.8	106.29	467.02	-733.32	96.003	360.27	-695.38	47.919	399.81	-456.01	681.76	153.54	-373.67	615.13	187.94	-444.74	590.24	181.3	-380.23	701.69	161.79	-401.27	511	204.37	-401.92	519.22	332.09	-476.18	301.18	212.04	-415.85	210.72	234.43	-477.96	224.59	225.2	-413.32	286.4	220.29	-458.53	104.62	243.71	-447.2	118.58	329.77	-531.03	76.435	292.38	-518.49	44.597	326.06	-524	45.985	261.44	-347.25	39.907	222.35	-319.63	45.861	331.26	-264.18	57.141	281.8	-560.44	1492	323.98	-641.04	1282	314.04
76	0.3125	-350.71	1275.2	332.35	-478.92	1435.6	471.46	-470	1439.1	163.85	-537.78	1739	326.63	-408.59	996.45	433.12	-397.18	1027.6	203.86	-603.91	1024.2	335.44	-595.05	1037.6	255.91	-485.1	908.53	494.54	-450.86	969.24	139.09	-508.61	1074.6	476.61	-463.22	1103.1	175.96	-622.87	997.22	294.9	-428.35	709.18	507.41	-353.45	643.42	481.12	-414.55	620.52	504.68	-364.36	734.42	480.39	-398.98	495.76	475.51	-382.99	491.15	343.91	-593.2	392.32	470.77	-598.71	300.88	461.95	-648.71	342.53	466.09	-537.2	348.01	467.68	-721.23	254.42	449.03	-704.31	250.12	369.42	-779.66	280.72	400.97	-799.23	264.74	371.08	-802.18	265.05	432.59	-741.51	104.38	467.91	-715.72	94.31	361.15	-676.07	47.802	400.97	-453.93	682.31	153.56	-372.03	615.01	187.73	-443.3	590.67	181.27	-377.98	701.64	161.58	-400.28	511.08	204.15	-400.87	519.13	331.89	-475.69	301.37	212	-415.55	210.81	234.4	-477.65	224.81	225.24	-412.86	286.48	220.22	-458.38	104.66	243.79	-447.06	118.69	329.8	-530.88	76.512	292.42	-518.47	44.683	326.08	-523.95	46.12	261.48	-347.21	39.874	222.34	-319.53	45.739	331.25	-264.07	56.908	281.81	-556.17	1492.9	323.44	-636.57	1282.7	313.26
77	0.31667	-346.42	1276.3	332.5	-475.45	1436.5	471.31	-465.06	1440.1	163.77	-532.68	1740.1	326.46	-403.78	997.76	432.62	-392.97	1028.3	203.32	-599.34	1025	335.59	-590.63	1038.2	256	-479.63	910	494.68	-446.9	969.65	138.83	-503.8	1075.8	476.39	-459.02	1103.8	175.64	-618.32	997.96	295.14	-420.71	711.19	507.74	-345.28	646.28	481.12	-405.89	622.69	505.26	-357.38	737.09	480.03	-389.18	497.89	475.97	-373.25	493.61	344.42	-582.42	392.16	471	-586.67	300.64	462.11	-637.2	341.67	466.35	-525.8	348.6	467.96	-708.72	252.58	448.96	-691.63	248.33	369.67	-768.64	276.85	400.71	-787.64	260	370.91	-790.55	260.64	432.48	-724.09	102.43	468.8	-697.97	92.596	362.04	-656.65	47.729	402.15	-451.85	682.84	153.61	-370.4	614.88	187.55	-441.87	591.1	181.27	-375.73	701.58	161.39	-399.31	511.16	203.96	-399.77	519.04	331.71	-475.2	301.56	212	-415.25	210.91	234.39	-477.35	225.02	225.3	-412.4	286.55	220.19	-458.22	104.7	243.89	-446.92	118.79	329.86	-530.73	76.599	292.49	-518.45	44.769	326.12	-523.9	46.263	261.52	-347.17	39.846	222.33	-319.43	45.602	331.24	-263.95	56.657	281.82	-551.92	1493.7	322.91	-632.11	1283.5	312.5
78	0.32083	-342.16	1277.5	332.6	-471.95	1437.4	471.15	-460.17	1441.2	163.7	-527.59	1741.2	326.29	-398.98	999.04	432.11	-388.77	1029	202.77	-594.78	1025.8	335.74	-586.23	1038.9	256.09	-474.12	911.45	494.82	-442.96	970.01	138.57	-498.95	1077	476.17	-454.82	1104.5	175.31	-613.79	998.64	295.37	-413.09	713.2	508.04	-337.16	649.12	481.07	-397.27	624.89	505.83	-350.45	739.76	479.63	-379.48	500.03	476.41	-363.68	496.09	344.94	-571.66	391.88	471.27	-574.6	300.28	462.27	-625.66	340.66	466.64	-514.41	349.11	468.24	-696.11	250.55	448.9	-678.84	246.39	369.91	-757.44	272.75	400.44	-775.85	255.04	370.74	-778.75	256.02	432.36	-706.56	100.47	469.69	-680.09	90.87	362.94	-637.17	47.705	403.35	-449.79	683.36	153.68	-368.78	614.75	187.4	-440.44	591.53	181.3	-373.49	701.51	161.21	-398.36	511.24	203.79	-398.59	518.96	331.56	-474.72	301.75	212.02	-414.94	211	234.41	-477.04	225.24	225.4	-411.95	286.63	220.19	-458.05	104.75	244	-446.79	118.88	329.94	-530.58	76.696	292.57	-518.44	44.856	326.15	-523.84	46.415	261.57	-347.12	39.824	222.34	-319.32	45.449	331.23	-263.82	56.388	281.83	-547.66	1494.5	322.4	-627.66	1284.2	311.78
79	0.325	-337.9	1278.5	332.65	-468.44	1438.3	471	-455.31	1442.2	163.62	-522.51	1742.3	326.14	-394.19	1000.3	431.59	-384.57	1029.7	202.21	-590.23	1026.6	335.89	-581.85	1039.5	256.18	-468.6	912.88	494.96	-439.02	970.34	138.32	-494.08	1078.2	475.94	-450.63	1105.1	174.97	-609.25	999.27	295.6	-405.49	715.22	508.32	-329.11	651.95	480.98	-388.7	627.1	506.38	-343.55	742.4	479.21	-369.89	502.18	476.84	-354.29	498.57	345.47	-560.93	391.47	471.56	-562.5	299.83	462.42	-614.1	339.51	466.94	-503.03	349.55	468.53	-683.4	248.35	448.84	-665.94	244.3	370.14	-746.06	268.44	400.17	-763.85	249.88	370.57	-766.76	251.19	432.25	-688.94	98.503	470.58	-662.1	89.136	363.84	-617.64	47.732	404.55	-447.73	683.86	153.77	-367.18	614.61	187.28	-439.01	591.95	181.37	-371.27	701.42	161.06	-397.44	511.32	203.64	-397.35	518.89	331.42	-474.25	301.95	212.06	-414.64	211.09	234.45	-476.73	225.45	225.51	-411.5	286.7	220.2	-457.87	104.81	244.13	-446.65	118.97	330.05	-530.44	76.804	292.66	-518.42	44.944	326.19	-523.77	46.576	261.63	-347.07	39.808	222.35	-319.2	45.284	331.24	-263.68	56.104	281.86	-543.42	1495.2	321.9	-623.22	1284.9	311.07
